<!-- 
    АДАПТИВНЫЙ ЛОГОТИП:
    Цвет логотипа автоматически адаптируется к теме через CSS filter:
    - Светлая тема: темный логотип (черный)
    - Темная тема: светлый логотип (белый)
    
    Управление через JavaScript в script.js (функция applyAdaptiveLogo)
-->
<svg width="274" height="307" viewBox="0 0 274 307" fill="none" xmlns="http://www.w3.org/2000/svg">
<path d="M118.476 291.734L113.269 300.271L113.269 300.271L118.476 291.734ZM27.255 236.098L22.0481 244.636L22.0481 244.636L27.255 236.098ZM27.7198 68.7555L32.7976 77.3704L32.7976 77.3704L27.7198 68.7555ZM118.942 14.9866L113.864 6.3717L113.864 6.37171L118.942 14.9866ZM155.558 15.0193L160.651 6.41359L160.651 6.41359L155.558 15.0193ZM246.336 68.7455L251.429 60.1398L246.336 68.7455ZM246.796 236.11L252.019 244.638L252.019 244.638L246.796 236.11ZM156.031 291.694L150.809 283.166L150.809 283.166L156.031 291.694ZM109.049 49.9163C104.204 47.266 98.1271 49.0453 95.4767 53.8907C92.8264 58.736 94.6057 64.8125 99.4511 67.4629L104.25 58.6896L109.049 49.9163ZM157.775 264.403C162.474 267.305 168.636 265.848 171.538 261.149C174.44 256.449 172.982 250.288 168.283 247.386L163.029 255.895L157.775 264.403ZM20.4263 130.551C20.6256 125.032 16.313 120.396 10.7937 120.197C5.27446 119.998 0.638644 124.31 0.439329 129.83L10.4328 130.19L20.4263 130.551ZM242.326 187.004C247.111 184.246 248.754 178.131 245.996 173.346C243.238 168.561 237.123 166.918 232.338 169.676L237.332 178.34L242.326 187.004ZM59.3119 244.336C54.549 241.54 48.4215 243.134 45.6256 247.897C42.8298 252.66 44.4244 258.788 49.1873 261.584L54.2496 252.96L59.3119 244.336ZM223.548 83.5989C223.774 78.0807 219.484 73.424 213.966 73.198C208.448 72.9719 203.791 77.2621 203.565 82.7803L213.557 83.1896L223.548 83.5989ZM174.195 268.924C169.287 271.455 167.36 277.487 169.891 282.395C172.423 287.304 178.454 289.231 183.362 286.699L178.779 277.812L174.195 268.924ZM34.0516 123.344C29.3336 126.215 27.8364 132.367 30.7074 137.085C33.5784 141.803 39.7304 143.301 44.4484 140.43L39.25 131.887L34.0516 123.344ZM215.652 61.6806C220.48 64.3625 226.568 62.6228 229.25 57.7948C231.932 52.9668 230.192 46.8789 225.364 44.197L220.508 52.9388L215.652 61.6806ZM58.7742 229.102C58.9425 234.622 63.5541 238.961 69.0744 238.792C74.5947 238.624 78.9333 234.012 78.7649 228.492L68.7695 228.797L58.7742 229.102ZM94.7743 40.727C99.4897 37.8517 100.981 31.6983 98.106 26.983C95.2307 22.2676 89.0773 20.7759 84.362 23.6512L89.5681 32.1891L94.7743 40.727ZM118.476 291.734L123.683 283.196L32.4619 227.561L27.255 236.098L22.0481 244.636L113.269 300.271L118.476 291.734ZM10 205.364H20V99.769H10H0V205.364H10ZM27.7198 68.7555L32.7976 77.3704L124.02 23.6014L118.942 14.9866L113.864 6.37171L22.642 60.1407L27.7198 68.7555ZM155.558 15.0193L150.465 23.6251L241.242 77.3513L246.336 68.7455L251.429 60.1398L160.651 6.41359L155.558 15.0193ZM264 99.7262H254V205.407H264H274V99.7262H264ZM246.796 236.11L241.574 227.582L150.809 283.166L156.031 291.694L161.254 300.222L252.019 244.638L246.796 236.11ZM264 205.407H254C254 214.454 249.292 222.855 241.574 227.582L246.796 236.11L252.019 244.638C265.67 236.278 274 221.418 274 205.407H264ZM246.336 68.7455L241.242 77.3513C249.15 82.0313 254 90.5376 254 99.7262H264H274C274 83.4694 265.419 68.4198 251.429 60.1398L246.336 68.7455ZM118.942 14.9866L124.02 23.6014C132.181 18.7911 142.312 18.8001 150.465 23.6251L155.558 15.0193L160.651 6.41359C146.228 -2.12284 128.303 -2.13887 113.864 6.3717L118.942 14.9866ZM10 99.769H20C20 90.5637 24.8675 82.0446 32.7976 77.3704L27.7198 68.7555L22.642 60.1407C8.61163 68.4105 0 83.4828 0 99.769H10ZM27.255 236.098L32.462 227.561C24.7221 222.84 20 214.429 20 205.364H10H0C0 221.403 8.35455 236.284 22.0481 244.636L27.255 236.098ZM118.476 291.734L113.269 300.271C128.006 309.259 146.539 309.233 161.254 300.222L156.031 291.694L150.809 283.166C142.487 288.262 132.008 288.274 123.683 283.196L118.476 291.734ZM104.25 58.6896L99.4511 67.4629C146.527 93.2131 185.473 113.316 213.016 131.538C226.743 140.619 236.993 148.829 243.77 156.546C250.51 164.22 253.157 170.642 253.251 176.355L263.25 176.19L273.249 176.024C273.048 163.884 267.34 153.075 258.797 143.348C250.292 133.665 238.332 124.305 224.051 114.858C195.578 96.0207 155.32 75.2267 109.049 49.9163L104.25 58.6896ZM163.029 255.895L168.283 247.386C122.628 219.194 84.7933 197.07 58.2475 177.424C45.0173 167.633 35.2138 158.894 28.8518 150.832C22.5251 142.814 20.2201 136.262 20.4263 130.551L10.4328 130.19L0.439329 129.83C0.00115669 141.963 5.13216 153.058 13.151 163.221C21.1346 173.338 32.5863 183.314 46.3499 193.5C73.7919 213.809 112.9 236.693 157.775 264.403L163.029 255.895ZM237.332 178.34L232.338 169.676C185.85 196.473 148.415 219.267 118.522 233.303C103.623 240.298 91.2777 244.778 81.1611 246.549C71.1006 248.31 64.2397 247.228 59.3119 244.336L54.2496 252.96L49.1873 261.584C59.658 267.73 71.859 268.482 84.6102 266.249C97.3054 264.027 111.522 258.684 127.022 251.407C157.925 236.897 196.632 213.343 242.326 187.004L237.332 178.34ZM213.557 83.1896L203.565 82.7803C201.369 136.393 200.628 180.216 196.515 212.983C194.465 229.315 191.653 242.143 187.743 251.64C183.855 261.084 179.274 266.305 174.195 268.924L178.779 277.812L183.362 286.699C194.153 281.134 201.31 271.224 206.237 259.253C211.144 247.335 214.226 232.464 216.359 215.474C220.611 181.601 221.39 136.296 223.548 83.5989L213.557 83.1896ZM39.25 131.887L44.4484 140.43C90.2865 112.536 127.169 88.8588 156.721 74.1168C171.45 66.7695 183.685 61.9981 193.756 59.987C203.772 57.9871 210.657 58.9059 215.652 61.6806L220.508 52.9388L225.364 44.197C214.75 38.3012 202.535 37.8394 189.84 40.3742C177.201 42.8978 163.116 48.5765 147.793 56.22C117.244 71.4597 79.1067 95.9271 34.0516 123.344L39.25 131.887ZM68.7695 228.797L78.7649 228.492C77.1291 174.859 74.7405 131.095 76.5046 98.1179C77.3838 81.6821 79.2728 68.6861 82.4947 58.934C85.6987 49.2361 89.8958 43.7018 94.7743 40.727L89.5681 32.1891L84.362 23.6512C73.9957 29.9723 67.5652 40.3682 63.5042 52.66C59.4612 64.8977 57.4479 79.951 56.5332 97.0495C54.7095 131.14 57.1663 176.385 58.7742 229.102L68.7695 228.797Z" fill="black"/>
</svg>
